<svg data-v-423bf9ae="" xmlns="http://www.w3.org/2000/svg" viewBox="0 0 186.47618410394503 189" class="iconAboveSlogan"><!----><!----><!----><g data-v-423bf9ae="" id="a0ed173f-0adc-4f89-aeba-631cff25f45b" fill="black" transform="matrix(4.761904617736313,0,0,4.761904617736313,-1.3333355209320104,87.33333780399704)"><path d="M0.39 4.49L0.39 4.49L0.39 4.49Q1.90 4.75 4.02 4.75L4.02 4.75L4.02 4.75Q6.13 4.75 8.44 4.24L8.44 4.24L8.44 4.24Q8.20 6.02 6.64 6.19L6.64 6.19L6.64 6.19Q6.15 6.26 5.12 6.33L5.12 6.33L5.12 6.33Q5.10 6.73 4.66 9.88L4.66 9.88L4.66 9.88Q4.23 13.02 4.23 14.21L4.23 14.21L4.23 14.21Q4.23 15.40 4.42 15.86L4.42 15.86L4.42 15.86Q3.23 15.55 2.80 15.04L2.80 15.04L2.80 15.04Q2.37 14.53 2.37 13.78L2.37 13.78L2.37 13.78Q2.37 13.02 2.72 10.49L2.72 10.49L2.72 10.49Q3.08 7.97 3.15 6.43L3.15 6.43L3.15 6.43Q2.02 6.48 0.92 6.48L0.92 6.48L0.92 6.48Q0.28 6.48 0.28 5.33L0.28 5.33L0.28 5.33Q0.31 4.79 0.39 4.49ZM10.21 12.78L10.21 12.78L10.21 12.78Q10.21 13.44 10.45 13.85L10.45 13.85L10.45 13.85Q10.70 14.27 11.14 14.27L11.14 14.27L11.14 14.27Q11.80 14.27 12.40 13.50L12.40 13.50L12.40 13.50Q12.99 12.73 13.35 11.52L13.35 11.52L13.35 11.52Q13.71 10.32 13.71 9.23L13.71 9.23L13.71 9.23Q13.71 8.15 13.62 7.48L13.62 7.48L13.62 7.48Q14.04 7.45 14.21 7.45L14.21 7.45L14.21 7.45Q14.92 7.45 15.29 7.71L15.29 7.71L15.29 7.71Q15.65 7.98 15.65 8.67L15.65 8.67L15.65 8.67Q15.65 8.93 15.32 10.83L15.32 10.83L15.32 10.83Q14.98 12.73 14.98 13.87L14.98 13.87L14.98 13.87Q14.98 15.01 15.41 15.89L15.41 15.89L15.41 15.89Q14.36 15.71 13.87 15.11L13.87 15.11L13.87 15.11Q13.38 14.52 13.38 13.40L13.38 13.40L13.38 13.40Q13.38 13.20 13.44 12.64L13.44 12.64L13.44 12.64Q13.06 13.97 12.10 14.78L12.10 14.78L12.10 14.78Q11.13 15.60 10.20 15.60L10.20 15.60L10.20 15.60Q9.27 15.60 8.70 14.90L8.70 14.90L8.70 14.90Q8.13 14.21 8.13 12.94L8.13 12.94L8.13 12.94Q8.13 11.66 8.59 10.46L8.59 10.46L8.59 10.46Q9.04 9.27 9.95 8.44L9.95 8.44L9.95 8.44Q10.86 7.60 11.98 7.60L11.98 7.60L11.98 7.60Q12.63 7.60 13.30 7.91L13.30 7.91L13.30 7.91Q11.89 8.41 11.05 9.89L11.05 9.89L11.05 9.89Q10.21 11.37 10.21 12.78ZM19.10 12.78L19.10 12.78L19.10 12.78Q19.10 13.44 19.34 13.85L19.34 13.85L19.34 13.85Q19.59 14.27 20.03 14.27L20.03 14.27L20.03 14.27Q20.69 14.27 21.29 13.50L21.29 13.50L21.29 13.50Q21.88 12.73 22.24 11.52L22.24 11.52L22.24 11.52Q22.60 10.32 22.60 9.23L22.60 9.23L22.60 9.23Q22.60 8.15 22.51 7.48L22.51 7.48L22.51 7.48Q22.93 7.45 23.10 7.45L23.10 7.45L23.10 7.45Q23.81 7.45 24.18 7.71L24.18 7.71L24.18 7.71Q24.54 7.98 24.54 8.67L24.54 8.67L24.54 8.67Q24.54 8.93 24.21 10.83L24.21 10.83L24.21 10.83Q23.87 12.73 23.87 13.87L23.87 13.87L23.87 13.87Q23.87 15.01 24.30 15.89L24.30 15.89L24.30 15.89Q23.25 15.71 22.76 15.11L22.76 15.11L22.76 15.11Q22.27 14.52 22.27 13.40L22.27 13.40L22.27 13.40Q22.27 13.20 22.33 12.64L22.33 12.64L22.33 12.64Q21.95 13.97 20.99 14.78L20.99 14.78L20.99 14.78Q20.02 15.60 19.09 15.60L19.09 15.60L19.09 15.60Q18.16 15.60 17.59 14.90L17.59 14.90L17.59 14.90Q17.02 14.21 17.02 12.94L17.02 12.94L17.02 12.94Q17.02 11.66 17.48 10.46L17.48 10.46L17.48 10.46Q17.93 9.27 18.84 8.44L18.84 8.44L18.84 8.44Q19.75 7.60 20.87 7.60L20.87 7.60L20.87 7.60Q21.52 7.60 22.19 7.91L22.19 7.91L22.19 7.91Q20.78 8.41 19.94 9.89L19.94 9.89L19.94 9.89Q19.10 11.37 19.10 12.78ZM28.42 10.88L28.42 10.88Q28.92 9.06 29.63 8.20L29.63 8.20L29.63 8.20Q30.34 7.34 30.95 7.34L30.95 7.34L30.95 7.34Q31.56 7.34 31.86 7.79L31.86 7.79L31.86 7.79Q32.17 8.25 32.17 8.97L32.17 8.97L32.17 8.97Q32.17 9.69 31.75 10.29L31.75 10.29L31.75 10.29Q31.32 10.89 30.58 10.89L30.58 10.89L30.58 10.89Q30.38 10.89 30.11 10.78L30.11 10.78L30.11 10.78Q30.55 10.23 30.55 9.46L30.55 9.46L30.55 9.46Q30.55 9.02 30.18 9.02L30.18 9.02L30.18 9.02Q29.92 9.02 29.61 9.39L29.61 9.39L29.61 9.39Q29.30 9.76 29.02 10.41L29.02 10.41L29.02 10.41Q28.74 11.06 28.55 12.08L28.55 12.08L28.55 12.08Q28.36 13.09 28.36 14.24L28.36 14.24L28.36 14.24Q28.36 14.38 28.43 15.43L28.43 15.43L28.43 15.43Q27.99 15.46 27.86 15.46L27.86 15.46L27.86 15.46Q27.06 15.46 26.71 15.18L26.71 15.18L26.71 15.18Q26.36 14.90 26.36 14.25L26.36 14.25L26.36 14.25Q26.36 13.97 26.66 12.10L26.66 12.10L26.66 12.10Q26.95 10.22 26.95 9.11L26.95 9.11L26.95 9.11Q26.95 7.99 26.71 7.06L26.71 7.06L26.71 7.06Q27.73 7.38 28.14 7.97L28.14 7.97L28.14 7.97Q28.55 8.57 28.55 9.36L28.55 9.36L28.55 9.36Q28.55 10.15 28.42 10.88L28.42 10.88ZM37.95 7.32L37.95 7.32L37.95 7.32Q38.68 7.32 39.06 7.59L39.06 7.59L39.06 7.59Q39.44 7.85 39.44 8.57L39.44 8.57L39.44 8.57Q39.44 8.79 39.17 10.54L39.17 10.54L39.17 10.54Q38.91 12.28 38.91 13.52L38.91 13.52L38.91 13.52Q38.91 14.77 39.17 15.72L39.17 15.72L39.17 15.72Q38.12 15.39 37.72 14.77L37.72 14.77L37.72 14.77Q37.31 14.15 37.31 13.24L37.31 13.24L37.31 13.24Q37.31 12.89 37.46 11.66L37.46 11.66L37.46 11.66Q37.03 13.26 36.14 14.34L36.14 14.34L36.14 14.34Q35.25 15.43 34.47 15.43L34.47 15.43L34.47 15.43Q32.86 15.43 32.86 13.10L32.86 13.10L32.86 13.10Q32.86 12.33 33.09 10.96L33.09 10.96L33.09 10.96Q33.32 9.58 33.32 8.86L33.32 8.86L33.32 8.86Q33.32 8.15 33.12 7.42L33.12 7.42L33.12 7.42Q34.29 7.42 34.81 7.72L34.81 7.72L34.81 7.72Q35.34 8.02 35.34 8.92L35.34 8.92L35.34 8.92Q35.34 9.39 35.04 10.81L35.04 10.81L35.04 10.81Q34.75 12.22 34.75 12.94L34.75 12.94L34.75 12.94Q34.75 13.97 35.31 13.97L35.31 13.97L35.31 13.97Q35.59 13.97 35.95 13.59L35.95 13.59L35.95 13.59Q36.32 13.20 36.65 12.57L36.65 12.57L36.65 12.57Q36.99 11.93 37.22 10.97L37.22 10.97L37.22 10.97Q37.45 10.01 37.45 9.02L37.45 9.02L37.45 9.02Q37.45 8.04 37.37 7.35L37.37 7.35L37.37 7.35Q37.79 7.32 37.95 7.32ZM35.03 6.30L35.03 6.30L35.03 6.30Q35.41 5.45 36.23 4.53L36.23 4.53L36.23 4.53Q37.06 3.61 37.84 3.29L37.84 3.29L37.84 3.29Q38.68 3.82 38.72 4.79L38.72 4.79L38.72 4.79Q37.84 5.03 37.00 5.59L37.00 5.59L37.00 5.59Q36.15 6.16 35.62 6.76L35.62 6.76L35.62 6.76Q35.39 6.72 35.22 6.59L35.22 6.59L35.22 6.59Q35.06 6.45 35.03 6.30Z"></path></g><!----><g data-v-423bf9ae="" id="578e58b3-7e23-4579-871d-18a7c29a37e6" transform="matrix(1.9565051896858756,0,0,1.9565051896858756,47.04379898840015,-0.9561344396610494)" stroke="none" fill="black"><g color="#000" font-weight="400" font-family="sans-serif" white-space="normal"><path style="line-height:normal;text-indent:0;text-align:start;text-decoration-line:none;text-decoration-style:solid;text-decoration-color:#000;text-transform:none;block-progression:tb;isolation:auto;mix-blend-mode:normal" d="M14 23C7.384 23 2 28.383 2 35c0 6.615 5.384 12 12 12s12-5.385 12-12c0-6.616-5.384-12-12-12zm0 2c5.535 0 10 4.465 10 10s-4.465 10-10 10S4 40.534 4 35c0-5.535 4.465-10 10-10z" overflow="visible"></path><path style="line-height:normal;text-indent:0;text-align:start;text-decoration-line:none;text-decoration-style:solid;text-decoration-color:#000;text-transform:none;block-progression:tb;isolation:auto;mix-blend-mode:normal" d="M19 31c-1.645 0-3 1.354-3 3 0 1.645 1.355 3 3 3s3-1.355 3-3c0-1.646-1.355-3-3-3zm0 2c.564 0 1 .435 1 1 0 .564-.436 1-1 1-.564 0-1-.436-1-1 0-.565.436-1 1-1zM12.5 38a2.515 2.515 0 0 0-2.5 2.5c0 1.369 1.131 2.5 2.5 2.5s2.5-1.131 2.5-2.5c0-1.37-1.131-2.5-2.5-2.5zm0 2c.288 0 .5.212.5.5 0 .288-.212.5-.5.5a.486.486 0 0 1-.5-.5c0-.288.212-.5.5-.5zM10.5 28A2.515 2.515 0 0 0 8 30.5c0 1.368 1.131 2.5 2.5 2.5s2.5-1.132 2.5-2.5c0-1.37-1.131-2.5-2.5-2.5zm0 2c.288 0 .5.211.5.5 0 .287-.212.5-.5.5a.486.486 0 0 1-.5-.5c0-.289.212-.5.5-.5z" overflow="visible"></path><path style="line-height:normal;text-indent:0;text-align:start;text-decoration-line:none;text-decoration-style:solid;text-decoration-color:#000;text-transform:none;block-progression:tb;isolation:auto;mix-blend-mode:normal" d="M37.975 1a1 1 0 0 0-.756.375L23.236 18.352a1 1 0 1 0 1.545 1.272L38.764 2.647A1 1 0 0 0 37.974 1zM37.959 8a1 1 0 0 0-.748.385l-11.982 14.98a1 1 0 1 0 1.56 1.25l11.982-14.98a1 1 0 0 0-.812-1.634z" overflow="visible" fill-rule="evenodd"></path><path style="line-height:normal;text-indent:0;text-align:start;text-decoration-line:none;text-decoration-style:solid;text-decoration-color:#000;text-transform:none;block-progression:tb;isolation:auto;mix-blend-mode:normal" d="M17.5 13.999a2.515 2.515 0 0 0-2.5 2.5c0 1.369 1.131 2.5 2.5 2.5s2.5-1.131 2.5-2.5-1.131-2.5-2.5-2.5zm0 2c.288 0 .5.212.5.5 0 .288-.212.5-.5.5a.486.486 0 0 1-.5-.5c0-.288.212-.5.5-.5z" overflow="visible"></path><path style="line-height:normal;text-indent:0;text-align:start;text-decoration-line:none;text-decoration-style:solid;text-decoration-color:#000;text-transform:none;block-progression:tb;isolation:auto;mix-blend-mode:normal" d="M27.994 3.998a1 1 0 0 0-.762.362l-5.982 6.979a1 1 0 1 0 1.52 1.3l5.98-6.978a1 1 0 0 0-.756-1.663zM44.967 7a1 1 0 0 0-.752.38L31.232 23.357a1 1 0 1 0 1.553 1.262L45.768 8.641a1 1 0 0 0-.801-1.64z" overflow="visible" fill-rule="evenodd"></path><path style="line-height:normal;text-indent:0;text-align:start;text-decoration-line:none;text-decoration-style:solid;text-decoration-color:#000;text-transform:none;block-progression:tb;isolation:auto;mix-blend-mode:normal" d="M34.5 27a2.515 2.515 0 0 0-2.5 2.5c0 1.368 1.131 2.5 2.5 2.5s2.5-1.132 2.5-2.5c0-1.37-1.131-2.5-2.5-2.5zm0 2c.288 0 .5.211.5.5 0 .287-.212.5-.5.5a.486.486 0 0 1-.5-.5c0-.289.212-.5.5-.5z" overflow="visible"></path><path style="line-height:normal;text-indent:0;text-align:start;text-decoration-line:none;text-decoration-style:solid;text-decoration-color:#000;text-transform:none;block-progression:tb;isolation:auto;mix-blend-mode:normal" d="M44.994 16.999a1 1 0 0 0-.764.361l-5.98 6.98a1 1 0 1 0 1.52 1.3l5.98-6.979A1 1 0 0 0 44.994 17z" overflow="visible" fill-rule="evenodd"></path></g></g><!----><g data-v-423bf9ae="" id="1d723dc5-775a-4d6c-879d-5200b67013fd" fill="black" transform="matrix(1.0623406347282296,0,0,1.0623406347282296,24.010960543550652,198.4718617340085)"><path d="M2.06 14.62L2.06 15.68L0.97 15.68L0.97 5.88L2.06 5.88L2.06 9.83L2.23 9.83L2.23 9.83Q2.59 9.20 3.23 8.87L3.23 8.87L3.23 8.87Q3.88 8.54 4.63 8.54L4.63 8.54L4.63 8.54Q5.28 8.54 5.85 8.78L5.85 8.78L5.85 8.78Q6.43 9.02 6.87 9.46L6.87 9.46L6.87 9.46Q7.31 9.91 7.57 10.57L7.57 10.57L7.57 10.57Q7.83 11.23 7.83 12.07L7.83 12.07L7.83 12.35L7.83 12.35Q7.83 13.20 7.57 13.86L7.57 13.86L7.57 13.86Q7.32 14.52 6.88 14.97L6.88 14.97L6.88 14.97Q6.44 15.41 5.85 15.64L5.85 15.64L5.85 15.64Q5.26 15.88 4.61 15.88L4.61 15.88L4.61 15.88Q4.27 15.88 3.92 15.80L3.92 15.80L3.92 15.80Q3.57 15.72 3.25 15.56L3.25 15.56L3.25 15.56Q2.94 15.40 2.67 15.17L2.67 15.17L2.67 15.17Q2.41 14.94 2.23 14.62L2.23 14.62L2.06 14.62ZM4.38 14.84L4.38 14.84L4.38 14.84Q4.89 14.84 5.31 14.66L5.31 14.66L5.31 14.66Q5.73 14.49 6.04 14.17L6.04 14.17L6.04 14.17Q6.36 13.85 6.53 13.38L6.53 13.38L6.53 13.38Q6.71 12.92 6.71 12.35L6.71 12.35L6.71 12.07L6.71 12.07Q6.71 11.51 6.53 11.05L6.53 11.05L6.53 11.05Q6.36 10.60 6.04 10.27L6.04 10.27L6.04 10.27Q5.73 9.94 5.30 9.76L5.30 9.76L5.30 9.76Q4.87 9.58 4.38 9.58L4.38 9.58L4.38 9.58Q3.89 9.58 3.47 9.77L3.47 9.77L3.47 9.77Q3.05 9.95 2.74 10.29L2.74 10.29L2.74 10.29Q2.42 10.63 2.24 11.09L2.24 11.09L2.24 11.09Q2.06 11.56 2.06 12.12L2.06 12.12L2.06 12.29L2.06 12.29Q2.06 12.87 2.24 13.33L2.24 13.33L2.24 13.33Q2.42 13.80 2.74 14.14L2.74 14.14L2.74 14.14Q3.05 14.48 3.47 14.66L3.47 14.66L3.47 14.66Q3.89 14.84 4.38 14.84ZM21.83 17.05L21.83 14.42L21.66 14.42L21.66 14.42Q21.32 15.09 20.78 15.48L20.78 15.48L20.78 15.48Q20.23 15.88 19.39 15.88L19.39 15.88L19.39 15.88Q18.82 15.88 18.33 15.69L18.33 15.69L18.33 15.69Q17.85 15.50 17.51 15.12L17.51 15.12L17.51 15.12Q17.16 14.74 16.98 14.18L16.98 14.18L16.98 14.18Q16.79 13.62 16.79 12.88L16.79 12.88L16.79 8.74L17.88 8.74L17.88 12.74L17.88 12.74Q17.88 13.83 18.33 14.34L18.33 14.34L18.33 14.34Q18.77 14.84 19.70 14.84L19.70 14.84L19.70 14.84Q20.69 14.84 21.26 14.16L21.26 14.16L21.26 14.16Q21.83 13.48 21.83 12.35L21.83 12.35L21.83 8.74L22.92 8.74L22.92 17.39L22.92 17.39Q22.92 17.86 22.62 18.17L22.62 18.17L22.62 18.17Q22.32 18.48 21.84 18.48L21.84 18.48L17.88 18.48L17.88 17.47L21.45 17.47L21.45 17.47Q21.83 17.47 21.83 17.05L21.83 17.05ZM53.30 15.68L53.30 14.62L53.13 14.62L53.13 14.62Q52.96 14.94 52.70 15.18L52.70 15.18L52.70 15.18Q52.44 15.41 52.14 15.57L52.14 15.57L52.14 15.57Q51.84 15.72 51.51 15.80L51.51 15.80L51.51 15.80Q51.17 15.88 50.86 15.88L50.86 15.88L50.86 15.88Q50.16 15.88 49.56 15.64L49.56 15.64L49.56 15.64Q48.96 15.40 48.50 14.95L48.50 14.95L48.50 14.95Q48.05 14.50 47.79 13.84L47.79 13.84L47.79 13.84Q47.53 13.17 47.53 12.32L47.53 12.32L47.53 12.10L47.53 12.10Q47.53 11.26 47.80 10.59L47.80 10.59L47.80 10.59Q48.06 9.93 48.51 9.47L48.51 9.47L48.51 9.47Q48.96 9.02 49.56 8.78L49.56 8.78L49.56 8.78Q50.16 8.54 50.83 8.54L50.83 8.54L50.83 8.54Q51.55 8.54 52.17 8.86L52.17 8.86L52.17 8.86Q52.79 9.17 53.13 9.83L53.13 9.83L53.30 9.83L53.30 5.88L54.39 5.88L54.39 15.68L53.30 15.68ZM50.97 14.84L50.97 14.84L50.97 14.84Q51.46 14.84 51.88 14.66L51.88 14.66L51.88 14.66Q52.30 14.48 52.62 14.14L52.62 14.14L52.62 14.14Q52.93 13.80 53.12 13.33L53.12 13.33L53.12 13.33Q53.30 12.87 53.30 12.29L53.30 12.29L53.30 12.12L53.30 12.12Q53.30 11.56 53.12 11.09L53.12 11.09L53.12 11.09Q52.93 10.63 52.62 10.29L52.62 10.29L52.62 10.29Q52.30 9.95 51.88 9.77L51.88 9.77L51.88 9.77Q51.45 9.58 50.97 9.58L50.97 9.58L50.97 9.58Q50.48 9.58 50.06 9.76L50.06 9.76L50.06 9.76Q49.63 9.94 49.31 10.28L49.31 10.28L49.31 10.28Q49 10.61 48.83 11.07L48.83 11.07L48.83 11.07Q48.65 11.54 48.65 12.10L48.65 12.10L48.65 12.32L48.65 12.32Q48.65 12.91 48.83 13.37L48.83 13.37L48.83 13.37Q49 13.83 49.31 14.16L49.31 14.16L49.31 14.16Q49.63 14.49 50.05 14.66L50.05 14.66L50.05 14.66Q50.47 14.84 50.97 14.84ZM68.53 14.59L68.53 14.50L68.36 14.50L68.36 14.50Q68.03 15.20 67.43 15.54L67.43 15.54L67.43 15.54Q66.84 15.88 66.18 15.88L66.18 15.88L66.18 15.88Q65.49 15.88 64.90 15.64L64.90 15.64L64.90 15.64Q64.32 15.41 63.88 14.96L63.88 14.96L63.88 14.96Q63.43 14.50 63.18 13.85L63.18 13.85L63.18 13.85Q62.93 13.19 62.93 12.32L62.93 12.32L62.93 12.10L62.93 12.10Q62.93 11.24 63.18 10.58L63.18 10.58L63.18 10.58Q63.43 9.93 63.88 9.47L63.88 9.47L63.88 9.47Q64.32 9.02 64.90 8.78L64.90 8.78L64.90 8.78Q65.49 8.54 66.15 8.54L66.15 8.54L66.15 8.54Q66.86 8.54 67.44 8.86L67.44 8.86L67.44 8.86Q68.03 9.17 68.36 9.83L68.36 9.83L68.53 9.83L68.53 8.74L69.62 8.74L69.62 14.25L69.62 14.25Q69.62 14.67 70 14.67L70 14.67L70.35 14.67L70.35 15.68L69.61 15.68L69.61 15.68Q69.13 15.68 68.83 15.37L68.83 15.37L68.83 15.37Q68.53 15.06 68.53 14.59L68.53 14.59ZM66.29 14.84L66.29 14.84L66.29 14.84Q66.78 14.84 67.19 14.66L67.19 14.66L67.19 14.66Q67.61 14.48 67.90 14.14L67.90 14.14L67.90 14.14Q68.19 13.80 68.36 13.33L68.36 13.33L68.36 13.33Q68.53 12.87 68.53 12.29L68.53 12.29L68.53 12.12L68.53 12.12Q68.53 11.56 68.36 11.09L68.36 11.09L68.36 11.09Q68.19 10.63 67.89 10.29L67.89 10.29L67.89 10.29Q67.59 9.95 67.18 9.77L67.18 9.77L67.18 9.77Q66.77 9.58 66.29 9.58L66.29 9.58L66.29 9.58Q65.80 9.58 65.39 9.76L65.39 9.76L65.39 9.76Q64.99 9.94 64.69 10.27L64.69 10.27L64.69 10.27Q64.39 10.60 64.22 11.07L64.22 11.07L64.22 11.07Q64.05 11.54 64.05 12.10L64.05 12.10L64.05 12.32L64.05 12.32Q64.05 13.51 64.67 14.17L64.67 14.17L64.67 14.17Q65.30 14.84 66.29 14.84ZM85.61 12.12L85.61 12.29L85.61 12.29Q85.61 13.16 85.32 13.82L85.32 13.82L85.32 13.82Q85.04 14.49 84.56 14.95L84.56 14.95L84.56 14.95Q84.08 15.40 83.45 15.64L83.45 15.64L83.45 15.64Q82.81 15.88 82.12 15.88L82.12 15.88L82.12 15.88Q81.42 15.88 80.79 15.64L80.79 15.64L80.79 15.64Q80.16 15.40 79.69 14.95L79.69 14.95L79.69 14.95Q79.21 14.49 78.92 13.82L78.92 13.82L78.92 13.82Q78.64 13.16 78.64 12.29L78.64 12.29L78.64 12.12L78.64 12.12Q78.64 11.27 78.92 10.61L78.92 10.61L78.92 10.61Q79.21 9.94 79.70 9.48L79.70 9.48L79.70 9.48Q80.18 9.02 80.81 8.78L80.81 8.78L80.81 8.78Q81.44 8.54 82.12 8.54L82.12 8.54L82.12 8.54Q82.81 8.54 83.44 8.78L83.44 8.78L83.44 8.78Q84.07 9.02 84.55 9.48L84.55 9.48L84.55 9.48Q85.04 9.94 85.32 10.61L85.32 10.61L85.32 10.61Q85.61 11.27 85.61 12.12L85.61 12.12ZM82.12 14.84L82.12 14.84L82.12 14.84Q82.63 14.84 83.06 14.66L83.06 14.66L83.06 14.66Q83.48 14.49 83.80 14.15L83.80 14.15L83.80 14.15Q84.13 13.82 84.31 13.35L84.31 13.35L84.31 13.35Q84.49 12.88 84.49 12.29L84.49 12.29L84.49 12.12L84.49 12.12Q84.49 11.56 84.31 11.09L84.31 11.09L84.31 11.09Q84.13 10.63 83.80 10.29L83.80 10.29L83.80 10.29Q83.48 9.95 83.05 9.77L83.05 9.77L83.05 9.77Q82.61 9.58 82.12 9.58L82.12 9.58L82.12 9.58Q81.63 9.58 81.20 9.77L81.20 9.77L81.20 9.77Q80.77 9.95 80.44 10.29L80.44 10.29L80.44 10.29Q80.12 10.63 79.94 11.09L79.94 11.09L79.94 11.09Q79.76 11.56 79.76 12.12L79.76 12.12L79.76 12.29L79.76 12.29Q79.76 12.88 79.94 13.35L79.94 13.35L79.94 13.35Q80.12 13.82 80.44 14.15L80.44 14.15L80.44 14.15Q80.77 14.49 81.19 14.66L81.19 14.66L81.19 14.66Q81.62 14.84 82.12 14.84ZM101.18 12.12L101.18 12.29L101.18 12.29Q101.18 13.16 100.89 13.82L100.89 13.82L100.89 13.82Q100.60 14.49 100.13 14.95L100.13 14.95L100.13 14.95Q99.65 15.40 99.02 15.64L99.02 15.64L99.02 15.64Q98.38 15.88 97.69 15.88L97.69 15.88L97.69 15.88Q96.99 15.88 96.36 15.64L96.36 15.64L96.36 15.64Q95.73 15.40 95.26 14.95L95.26 14.95L95.26 14.95Q94.78 14.49 94.49 13.82L94.49 13.82L94.49 13.82Q94.21 13.16 94.21 12.29L94.21 12.29L94.21 12.12L94.21 12.12Q94.21 11.27 94.49 10.61L94.49 10.61L94.49 10.61Q94.78 9.94 95.26 9.48L95.26 9.48L95.26 9.48Q95.75 9.02 96.38 8.78L96.38 8.78L96.38 8.78Q97.01 8.54 97.69 8.54L97.69 8.54L97.69 8.54Q98.38 8.54 99.01 8.78L99.01 8.78L99.01 8.78Q99.64 9.02 100.12 9.48L100.12 9.48L100.12 9.48Q100.60 9.94 100.89 10.61L100.89 10.61L100.89 10.61Q101.18 11.27 101.18 12.12L101.18 12.12ZM97.69 14.84L97.69 14.84L97.69 14.84Q98.20 14.84 98.62 14.66L98.62 14.66L98.62 14.66Q99.05 14.49 99.37 14.15L99.37 14.15L99.37 14.15Q99.69 13.82 99.88 13.35L99.88 13.35L99.88 13.35Q100.06 12.88 100.06 12.29L100.06 12.29L100.06 12.12L100.06 12.12Q100.06 11.56 99.88 11.09L99.88 11.09L99.88 11.09Q99.69 10.63 99.37 10.29L99.37 10.29L99.37 10.29Q99.05 9.95 98.62 9.77L98.62 9.77L98.62 9.77Q98.18 9.58 97.69 9.58L97.69 9.58L97.69 9.58Q97.20 9.58 96.77 9.77L96.77 9.77L96.77 9.77Q96.33 9.95 96.01 10.29L96.01 10.29L96.01 10.29Q95.69 10.63 95.51 11.09L95.51 11.09L95.51 11.09Q95.33 11.56 95.33 12.12L95.33 12.12L95.33 12.29L95.33 12.29Q95.33 12.88 95.51 13.35L95.51 13.35L95.51 13.35Q95.69 13.82 96.01 14.15L96.01 14.15L96.01 14.15Q96.33 14.49 96.76 14.66L96.76 14.66L96.76 14.66Q97.19 14.84 97.69 14.84ZM115.57 15.68L115.57 14.62L115.40 14.62L115.40 14.62Q115.23 14.94 114.97 15.18L114.97 15.18L114.97 15.18Q114.72 15.41 114.41 15.57L114.41 15.57L114.41 15.57Q114.11 15.72 113.78 15.80L113.78 15.80L113.78 15.80Q113.44 15.88 113.13 15.88L113.13 15.88L113.13 15.88Q112.43 15.88 111.83 15.64L111.83 15.64L111.83 15.64Q111.23 15.40 110.78 14.95L110.78 14.95L110.78 14.95Q110.32 14.50 110.06 13.84L110.06 13.84L110.06 13.84Q109.80 13.17 109.80 12.32L109.80 12.32L109.80 12.10L109.80 12.10Q109.80 11.26 110.07 10.59L110.07 10.59L110.07 10.59Q110.33 9.93 110.78 9.47L110.78 9.47L110.78 9.47Q111.23 9.02 111.83 8.78L111.83 8.78L111.83 8.78Q112.43 8.54 113.11 8.54L113.11 8.54L113.11 8.54Q113.82 8.54 114.44 8.86L114.44 8.86L114.44 8.86Q115.07 9.17 115.40 9.83L115.40 9.83L115.57 9.83L115.57 5.88L116.66 5.88L116.66 15.68L115.57 15.68ZM113.25 14.84L113.25 14.84L113.25 14.84Q113.74 14.84 114.16 14.66L114.16 14.66L114.16 14.66Q114.58 14.48 114.89 14.14L114.89 14.14L114.89 14.14Q115.21 13.80 115.39 13.33L115.39 13.33L115.39 13.33Q115.57 12.87 115.57 12.29L115.57 12.29L115.57 12.12L115.57 12.12Q115.57 11.56 115.39 11.09L115.39 11.09L115.39 11.09Q115.21 10.63 114.89 10.29L114.89 10.29L114.89 10.29Q114.58 9.95 114.15 9.77L114.15 9.77L114.15 9.77Q113.72 9.58 113.25 9.58L113.25 9.58L113.25 9.58Q112.76 9.58 112.33 9.76L112.33 9.76L112.33 9.76Q111.90 9.94 111.59 10.28L111.59 10.28L111.59 10.28Q111.27 10.61 111.10 11.07L111.10 11.07L111.10 11.07Q110.92 11.54 110.92 12.10L110.92 12.10L110.92 12.32L110.92 12.32Q110.92 12.91 111.10 13.37L111.10 13.37L111.10 13.37Q111.27 13.83 111.59 14.16L111.59 14.16L111.59 14.16Q111.90 14.49 112.32 14.66L112.32 14.66L112.32 14.66Q112.74 14.84 113.25 14.84ZM130.80 14.59L130.80 14.50L130.63 14.50L130.63 14.50Q130.30 15.20 129.70 15.54L129.70 15.54L129.70 15.54Q129.11 15.88 128.45 15.88L128.45 15.88L128.45 15.88Q127.76 15.88 127.18 15.64L127.18 15.64L127.18 15.64Q126.59 15.41 126.15 14.96L126.15 14.96L126.15 14.96Q125.71 14.50 125.45 13.85L125.45 13.85L125.45 13.85Q125.20 13.19 125.20 12.32L125.20 12.32L125.20 12.10L125.20 12.10Q125.20 11.24 125.45 10.58L125.45 10.58L125.45 10.58Q125.71 9.93 126.15 9.47L126.15 9.47L126.15 9.47Q126.59 9.02 127.18 8.78L127.18 8.78L127.18 8.78Q127.76 8.54 128.42 8.54L128.42 8.54L128.42 8.54Q129.14 8.54 129.72 8.86L129.72 8.86L129.72 8.86Q130.30 9.17 130.63 9.83L130.63 9.83L130.80 9.83L130.80 8.74L131.89 8.74L131.89 14.25L131.89 14.25Q131.89 14.67 132.27 14.67L132.27 14.67L132.62 14.67L132.62 15.68L131.88 15.68L131.88 15.68Q131.40 15.68 131.10 15.37L131.10 15.37L131.10 15.37Q130.80 15.06 130.80 14.59L130.80 14.59ZM128.56 14.84L128.56 14.84L128.56 14.84Q129.05 14.84 129.47 14.66L129.47 14.66L129.47 14.66Q129.88 14.48 130.17 14.14L130.17 14.14L130.17 14.14Q130.47 13.80 130.63 13.33L130.63 13.33L130.63 13.33Q130.80 12.87 130.80 12.29L130.80 12.29L130.80 12.12L130.80 12.12Q130.80 11.56 130.63 11.09L130.63 11.09L130.63 11.09Q130.47 10.63 130.16 10.29L130.16 10.29L130.16 10.29Q129.86 9.95 129.45 9.77L129.45 9.77L129.45 9.77Q129.04 9.58 128.56 9.58L128.56 9.58L128.56 9.58Q128.07 9.58 127.67 9.76L127.67 9.76L127.67 9.76Q127.26 9.94 126.96 10.27L126.96 10.27L126.96 10.27Q126.66 10.60 126.49 11.07L126.49 11.07L126.49 11.07Q126.32 11.54 126.32 12.10L126.32 12.10L126.32 12.32L126.32 12.32Q126.32 13.51 126.94 14.17L126.94 14.17L126.94 14.17Q127.57 14.84 128.56 14.84Z"></path></g></svg>