<svg data-v-423bf9ae="" xmlns="http://www.w3.org/2000/svg" viewBox="0 0 57.390923386102315 60" class="icon"><!----><!----><!----><!----><g data-v-423bf9ae="" id="47004f2c-2d36-48df-999b-12fc74177c34" transform="matrix(1.3043367931239171,0,0,1.3043367931239171,-2.6086735292684757,-1.3038311608327398)" stroke="none" fill="white"><g color="#000" font-weight="400" font-family="sans-serif" white-space="normal"><path style="line-height:normal;text-indent:0;text-align:start;text-decoration-line:none;text-decoration-style:solid;text-decoration-color:#000;text-transform:none;block-progression:tb;isolation:auto;mix-blend-mode:normal" d="M14 23C7.384 23 2 28.383 2 35c0 6.615 5.384 12 12 12s12-5.385 12-12c0-6.616-5.384-12-12-12zm0 2c5.535 0 10 4.465 10 10s-4.465 10-10 10S4 40.534 4 35c0-5.535 4.465-10 10-10z" overflow="visible"></path><path style="line-height:normal;text-indent:0;text-align:start;text-decoration-line:none;text-decoration-style:solid;text-decoration-color:#000;text-transform:none;block-progression:tb;isolation:auto;mix-blend-mode:normal" d="M19 31c-1.645 0-3 1.354-3 3 0 1.645 1.355 3 3 3s3-1.355 3-3c0-1.646-1.355-3-3-3zm0 2c.564 0 1 .435 1 1 0 .564-.436 1-1 1-.564 0-1-.436-1-1 0-.565.436-1 1-1zM12.5 38a2.515 2.515 0 0 0-2.5 2.5c0 1.369 1.131 2.5 2.5 2.5s2.5-1.131 2.5-2.5c0-1.37-1.131-2.5-2.5-2.5zm0 2c.288 0 .5.212.5.5 0 .288-.212.5-.5.5a.486.486 0 0 1-.5-.5c0-.288.212-.5.5-.5zM10.5 28A2.515 2.515 0 0 0 8 30.5c0 1.368 1.131 2.5 2.5 2.5s2.5-1.132 2.5-2.5c0-1.37-1.131-2.5-2.5-2.5zm0 2c.288 0 .5.211.5.5 0 .287-.212.5-.5.5a.486.486 0 0 1-.5-.5c0-.289.212-.5.5-.5z" overflow="visible"></path><path style="line-height:normal;text-indent:0;text-align:start;text-decoration-line:none;text-decoration-style:solid;text-decoration-color:#000;text-transform:none;block-progression:tb;isolation:auto;mix-blend-mode:normal" d="M37.975 1a1 1 0 0 0-.756.375L23.236 18.352a1 1 0 1 0 1.545 1.272L38.764 2.647A1 1 0 0 0 37.974 1zM37.959 8a1 1 0 0 0-.748.385l-11.982 14.98a1 1 0 1 0 1.56 1.25l11.982-14.98a1 1 0 0 0-.812-1.634z" overflow="visible" fill-rule="evenodd"></path><path style="line-height:normal;text-indent:0;text-align:start;text-decoration-line:none;text-decoration-style:solid;text-decoration-color:#000;text-transform:none;block-progression:tb;isolation:auto;mix-blend-mode:normal" d="M17.5 13.999a2.515 2.515 0 0 0-2.5 2.5c0 1.369 1.131 2.5 2.5 2.5s2.5-1.131 2.5-2.5-1.131-2.5-2.5-2.5zm0 2c.288 0 .5.212.5.5 0 .288-.212.5-.5.5a.486.486 0 0 1-.5-.5c0-.288.212-.5.5-.5z" overflow="visible"></path><path style="line-height:normal;text-indent:0;text-align:start;text-decoration-line:none;text-decoration-style:solid;text-decoration-color:#000;text-transform:none;block-progression:tb;isolation:auto;mix-blend-mode:normal" d="M27.994 3.998a1 1 0 0 0-.762.362l-5.982 6.979a1 1 0 1 0 1.52 1.3l5.98-6.978a1 1 0 0 0-.756-1.663zM44.967 7a1 1 0 0 0-.752.38L31.232 23.357a1 1 0 1 0 1.553 1.262L45.768 8.641a1 1 0 0 0-.801-1.64z" overflow="visible" fill-rule="evenodd"></path><path style="line-height:normal;text-indent:0;text-align:start;text-decoration-line:none;text-decoration-style:solid;text-decoration-color:#000;text-transform:none;block-progression:tb;isolation:auto;mix-blend-mode:normal" d="M34.5 27a2.515 2.515 0 0 0-2.5 2.5c0 1.368 1.131 2.5 2.5 2.5s2.5-1.132 2.5-2.5c0-1.37-1.131-2.5-2.5-2.5zm0 2c.288 0 .5.211.5.5 0 .287-.212.5-.5.5a.486.486 0 0 1-.5-.5c0-.289.212-.5.5-.5z" overflow="visible"></path><path style="line-height:normal;text-indent:0;text-align:start;text-decoration-line:none;text-decoration-style:solid;text-decoration-color:#000;text-transform:none;block-progression:tb;isolation:auto;mix-blend-mode:normal" d="M44.994 16.999a1 1 0 0 0-.764.361l-5.98 6.98a1 1 0 1 0 1.52 1.3l5.98-6.979A1 1 0 0 0 44.994 17z" overflow="visible" fill-rule="evenodd"></path></g></g><!----></svg>